<?xml version="1.0" encoding="UTF-8"?>
<svg enable-background="new 0 0 470 470" version="1.1" viewBox="0 0 470 470" xml:space="preserve" xmlns="http://www.w3.org/2000/svg">
<path d="m93.633 266.72c0-4.143-3.357-7.5-7.5-7.5h-36.847v-202.15c0-23.194 18.87-42.064 42.065-42.064h212.95c23.194 0 42.064 18.87 42.064 42.064v286.22c0 4.143 3.357 7.5 7.5 7.5 4.144-2e-3 7.5-3.358 7.5-7.5v-286.22c0-31.465-25.598-57.064-57.064-57.064h-212.95c-31.466 0-57.065 25.599-57.065 57.064v209.65c0 4.143 3.357 7.5 7.5 7.5h44.347c4.141 1e-3 7.497-3.354 7.5-7.499z"/>
<path d="m428.21 365.78h-238.37c-4.143 0-7.5 3.357-7.5 7.5v14.869c0 9.529-7.753 17.282-17.282 17.282-4.143 0-7.5 3.357-7.5 7.5s3.357 7.5 7.5 7.5c17.801 0 32.282-14.481 32.282-32.282v-7.369h223.37v32.151c0 23.194-18.87 42.064-42.064 42.064h-212.95c-23.194 0-42.064-18.87-42.064-42.064v-331.09c0-17.801-14.481-32.282-32.282-32.282-4.143 0-7.5 3.357-7.5 7.5 0 0.384 0.038 0.758 0.094 1.127 0.545 3.606 3.648 6.373 7.406 6.373 9.529 0 17.282 7.753 17.282 17.282v331.09c0 31.466 25.599 57.064 57.064 57.064h212.95c31.466 0 57.064-25.599 57.064-57.064v-39.651c1e-3 -4.143-3.357-7.501-7.499-7.501z"/>
<path d="m303.87 313.53h-137.73c-4.143 0-7.5 3.357-7.5 7.5s3.357 7.5 7.5 7.5h137.73c4.143 0 7.5-3.357 7.5-7.5s-3.357-7.5-7.5-7.5z"/>
<path d="m303.87 261.27h-137.73c-4.143 0-7.5 3.357-7.5 7.5s3.357 7.5 7.5 7.5h137.73c4.143 0 7.5-3.357 7.5-7.5s-3.357-7.5-7.5-7.5z"/>
<path d="m303.87 209.02h-137.73c-4.143 0-7.5 3.357-7.5 7.5s3.357 7.5 7.5 7.5h137.73c4.143 0 7.5-3.357 7.5-7.5s-3.357-7.5-7.5-7.5z"/>
<path d="m303.87 156.76h-137.73c-4.143 0-7.5 3.357-7.5 7.5s3.357 7.5 7.5 7.5h137.73c4.143 0 7.5-3.357 7.5-7.5s-3.357-7.5-7.5-7.5z"/>
<path d="m297.37 59.755c0-4.143-3.357-7.5-7.5-7.5h-137.73c-4.143 0-7.5 3.357-7.5 7.5s3.357 7.5 7.5 7.5h137.73c4.143 0 7.5-3.358 7.5-7.5z"/>
<path d="m303.87 104.51h-137.73c-4.143 0-7.5 3.357-7.5 7.5s3.357 7.5 7.5 7.5h137.73c4.143 0 7.5-3.357 7.5-7.5s-3.357-7.5-7.5-7.5z"/>
</svg>